<svg width="16" height="16" viewBox="0 0 16 16" fill="none" xmlns="http://www.w3.org/2000/svg">
<path fill-rule="evenodd" clip-rule="evenodd" d="M13.1486 0.00073926C12.7399 0.0105774 12.3291 0.119323 11.9522 0.336914C10.7462 1.03322 10.3287 2.59269 11.0249 3.79871C11.0366 3.81883 11.0491 3.83834 11.0612 3.85806L8.07399 6.62991C7.23143 6.00368 6.18954 5.63235 5.06264 5.63235C4.74281 5.63235 4.43021 5.66312 4.1266 5.72024L3.19716 3.51748C3.94393 2.92097 4.16737 1.84144 3.67616 0.990631C3.13516 0.0535943 1.92045 -0.271073 0.983419 0.269926C0.0463785 0.810927 -0.279392 2.02454 0.261609 2.96158C0.65654 3.64562 1.41069 4.00413 2.15345 3.93716L3.04555 6.05313C1.25596 6.83484 0.000142818 8.62208 0.000142818 10.6949C0.000137193 12.2722 0.72725 13.6842 1.86342 14.6137C1.93048 14.7085 2.02528 14.7803 2.13478 14.8191C2.96236 15.4087 3.97253 15.7574 5.06264 15.7574C6.19042 15.7574 7.23329 15.3858 8.07619 14.7587C8.12366 14.7318 8.16695 14.6981 8.20472 14.6587C8.69943 14.2656 9.11872 13.7824 9.43848 13.2338L11.8137 13.7754C11.8103 14.1156 11.893 14.4604 12.0741 14.7741C12.6151 15.7111 13.8298 16.0358 14.7668 15.4948C15.7039 14.9538 16.0297 13.7401 15.4887 12.8031C14.9476 11.8661 13.7329 11.5403 12.7959 12.0813C12.5248 12.2378 12.3059 12.4514 12.1433 12.6976L9.89991 12.1846C10.0456 11.7132 10.1251 11.2131 10.1251 10.6948C10.1251 10.4864 10.1114 10.2815 10.0867 10.0796L12.0752 9.72694C12.6163 10.6631 13.8302 10.9884 14.7668 10.4476C15.7039 9.90665 16.0285 8.69193 15.4875 7.75489C14.9465 6.81785 13.7329 6.49319 12.7959 7.03419C12.2028 7.37664 11.8554 7.98849 11.817 8.62941L9.82628 8.98316C9.61501 8.39784 9.29861 7.86214 8.90013 7.39893L11.8511 4.66004C12.6243 5.15372 13.6407 5.21376 14.4856 4.72596C15.6916 4.02966 16.1102 2.47129 15.4139 1.26527C14.9352 0.43613 14.0478 -0.0209153 13.1486 0.00073926ZM5.06269 6.75733C7.24398 6.75733 9.0002 8.51355 9.0002 10.6948C9.0002 11.6932 8.63168 12.6016 8.02352 13.2942C7.68038 12.6693 7.14525 12.1643 6.49862 11.8594C6.99486 11.4455 7.31269 10.824 7.31269 10.1323C7.31269 8.89636 6.29867 7.88232 5.06269 7.88233C3.82672 7.88233 2.81269 8.89636 2.81269 10.1323C2.81269 10.824 3.13054 11.4455 3.62679 11.8594C2.98026 12.1645 2.44494 12.6691 2.10188 13.2942C1.49372 12.6016 1.12519 11.6932 1.12519 10.6948C1.12519 8.51354 2.88141 6.75733 5.06269 6.75733Z" fill="#70232F"/>
</svg>
