<svg width="14" height="10" viewBox="0 0 14 10" fill="none" xmlns="http://www.w3.org/2000/svg">
<path d="M12.7768 9.65005C12.8843 9.65005 12.9861 9.61147 13.0538 9.54489C13.1215 9.47835 13.1479 9.39106 13.1257 9.30729L12.9011 8.46083C13.029 8.36229 13.1094 8.2247 13.1094 8.07172C13.1094 7.91068 13.0194 7.76785 12.8796 7.66861V4.72916L11.9792 5.17287V7.66861C11.8394 7.76785 11.7493 7.91068 11.7493 8.07172C11.7493 8.22472 11.8297 8.36231 11.9577 8.46083L11.733 9.30729C11.7108 9.39108 11.7373 9.47837 11.805 9.54489C11.8727 9.61143 11.9744 9.65005 12.082 9.65005H12.7768ZM13.0819 3.01388L7.22456 0.12639C7.05302 0.0422422 6.85964 0 6.66626 0C6.47288 0 6.27936 0.0422068 6.10886 0.12639L0.2514 3.01388C0.0949934 3.09095 0 3.22708 0 3.37358C0 3.52011 0.0949933 3.65628 0.2514 3.73347L6.10883 6.62099C6.27933 6.70522 6.47285 6.74738 6.66623 6.74738C6.85961 6.74738 7.05302 6.70517 7.22453 6.62099L13.0819 3.73347C13.2383 3.65631 13.3333 3.52011 13.3333 3.37358C13.3333 3.22708 13.2383 3.09091 13.0819 3.01388ZM6.66623 7.46435C6.30136 7.46435 5.94525 7.38365 5.63485 7.23065L2.21818 5.5462V8.44667C2.21818 9.3051 4.21058 10 6.66623 10C9.12276 10 11.115 9.30508 11.115 8.44667V5.5462L7.69846 7.23065C7.38805 7.38365 7.0311 7.46435 6.66623 7.46435Z" fill="#70232F"/>
</svg>
