<svg width="14" height="12" viewBox="0 0 14 12" fill="none" xmlns="http://www.w3.org/2000/svg">
<path d="M1.78276 0.0453606C1.74524 0.082881 1.73992 0.133842 1.75322 0.399282C1.79606 1.30536 1.79886 1.4448 1.76932 1.49842C1.7318 1.57346 1.65676 1.56814 1.50122 1.48498C1.4315 1.44746 1.35114 1.42058 1.32692 1.42604C1.21702 1.44746 1.21968 1.50108 1.3671 2.17392L1.512 2.82814L1.5281 3.59212L1.5442 4.3561L1.64066 4.6242C1.78276 5.0183 1.83372 5.1282 1.99724 5.3802C2.1742 5.65096 2.4423 5.92438 2.68884 6.08524C2.8497 6.18982 2.86846 6.2139 2.86846 6.28894C2.86846 6.45512 2.86048 6.46058 2.58972 6.46058C2.12856 6.46324 1.77744 6.58126 1.50934 6.8278C1.43164 6.89752 1.09648 7.31836 0.76412 7.7581C0.00265995 8.77142 0 8.77954 0 9.56774C0 10.0691 0.0322 10.254 0.16352 10.514C0.30828 10.8009 0.65674 11.0984 0.9597 11.1895L1.01864 11.2083V10.6963C1.01864 10.2673 1.02662 10.1682 1.06148 10.1065C1.20624 9.86524 1.56016 9.9134 1.6352 10.1842C1.64864 10.2378 1.66208 10.5006 1.66208 10.7685V11.2591H3.80408H5.94874L5.95686 10.6935L5.96484 10.1277L6.0641 10.0366C6.18744 9.9267 6.3322 9.91326 6.44476 10.0017C6.5842 10.1116 6.59484 10.1679 6.59484 10.7255V11.2403L6.73428 11.2242C6.92734 11.2001 7.22484 11.0526 7.4018 10.8891L7.55468 10.7496H8.76372H9.97276V10.3207C9.97276 9.89982 9.97542 9.88904 10.0398 9.82464C10.1256 9.73616 10.2649 9.73616 10.3669 9.82198L10.4419 9.88624L10.4499 10.3071L10.4607 10.7279L10.5679 10.7118C10.8494 10.6663 11.171 10.4062 11.3078 10.1114C11.3667 9.9827 11.3802 9.91032 11.3883 9.67442L11.3991 9.39022L11.2168 9.3688C10.6351 9.3072 10.064 9.02034 9.6432 8.5806C8.83624 7.73612 8.6996 6.46268 9.30804 5.46546C9.45798 5.21934 9.87882 4.77974 10.0745 4.66438L10.1898 4.59732L10.1818 4.14162C10.1738 3.69922 10.171 3.68046 10.096 3.52772C9.99138 3.3159 9.82254 3.15238 9.60274 3.0478L9.42312 2.96198L8.72074 2.954L8.01836 2.94322L7.86282 2.74484C7.6993 2.53302 7.6216 2.49816 7.5733 2.6054C7.525 2.7153 7.45808 2.69388 7.18998 2.47408C6.86826 2.2113 6.87092 2.2113 6.81996 2.25428C6.7851 2.28382 6.77978 2.36152 6.79854 2.83332C6.81996 3.46066 6.81996 3.458 6.59204 3.35076C6.47402 3.29448 6.45526 3.29182 6.41774 3.32668C6.38288 3.3642 6.39366 3.43126 6.5009 3.92182C6.62158 4.47132 6.62158 4.4821 6.62158 4.98344V5.4901L6.71804 5.76352C6.82794 6.08258 6.91908 6.25142 7.09604 6.47122C7.2086 6.61066 7.44996 6.81702 7.59738 6.90284C7.6349 6.92426 7.64022 6.95114 7.62692 7.02884L7.60816 7.1253L7.3213 7.13608C7.05586 7.14406 7.01834 7.15218 6.84418 7.238L6.65378 7.3318L6.46884 7.10934C6.0935 6.64818 5.79054 6.49012 5.2759 6.48732C5.01592 6.48732 5.0078 6.482 4.9756 6.28628C4.95684 6.1817 4.9595 6.17638 5.0855 6.09868C5.26512 5.98612 5.55198 5.7099 5.70738 5.49822C5.87356 5.2703 6.01034 4.99688 6.14978 4.6109L6.25968 4.30262V3.17674C6.25968 2.06682 6.25968 2.04806 6.19808 1.87656C6.0319 1.4154 5.64858 1.07772 5.19008 0.994561C5.09894 0.978461 4.68076 0.965021 4.21162 0.965021L3.39122 0.962361L3.20362 0.718341C2.93818 0.372541 2.86314 0.337681 2.78544 0.517301C2.71838 0.667381 2.66742 0.645961 2.26534 0.310941C2.0643 0.139441 1.88202 9.53674e-07 1.86326 9.53674e-07C1.8417 -0.000139236 1.80684 0.0186205 1.78276 0.0453606Z" fill="#70232F"/>
<path d="M11.3451 4.66719C11.2138 4.70471 11.0583 4.87355 11.0234 5.02111C11.0046 5.09615 10.9912 5.38035 10.9912 5.74757V6.35335H10.3478C9.56223 6.35335 9.48187 6.37477 9.35321 6.62677C9.23785 6.85469 9.32101 7.16297 9.53549 7.29695C9.63475 7.35589 9.65883 7.35855 10.3129 7.36667L10.9885 7.37465L10.9965 8.03685C11.0045 8.68561 11.0045 8.70171 11.0716 8.81973C11.2298 9.09861 11.597 9.16021 11.841 8.94573C12.0019 8.80363 12.0098 8.76079 12.0098 8.02887V7.37199H12.6533C13.176 7.37199 13.3181 7.36401 13.3985 7.33181C13.814 7.15485 13.8301 6.61333 13.4254 6.40431C13.3342 6.35867 13.2619 6.35335 12.6667 6.35335H12.01V5.69661C12.01 4.96469 12.002 4.92185 11.8411 4.77975C11.6964 4.65109 11.5302 4.61357 11.3451 4.66719Z" fill="#70232F"/>
</svg>
