<svg width="14" height="14" viewBox="0 0 14 14" fill="none" xmlns="http://www.w3.org/2000/svg">
<path fill-rule="evenodd" clip-rule="evenodd" d="M12.2975 5.45623C12.0053 5.54006 11.6957 5.5851 11.375 5.5851C9.60309 5.5851 8.16667 4.20981 8.16667 2.5133C8.16667 2.14272 8.2352 1.78748 8.3608 1.45854C7.70709 1.23737 7.00364 1.11702 6.27083 1.11702C2.80762 1.11702 0 3.80493 0 7.12101C0 10.4371 2.80762 13.125 6.27083 13.125C9.73405 13.125 12.5417 10.4371 12.5417 7.12101C12.5417 6.54339 12.4565 5.98484 12.2975 5.45623ZM5.06409 7.7947H8.72998V4.78604H5.06409H4.36573V10.1347H5.06409V7.7947Z" fill="#70232F"/>
<path fill-rule="evenodd" clip-rule="evenodd" d="M11.375 5.0266C12.8247 5.0266 14 3.90135 14 2.5133C14 1.12524 12.8247 0 11.375 0C9.92525 0 8.75 1.12524 8.75 2.5133C8.75 3.90135 9.92525 5.0266 11.375 5.0266ZM10.2083 1.95479L9.625 2.5133L11.0833 3.90957L13.125 1.95479L12.5417 1.39628L11.0833 2.79255L10.2083 1.95479Z" fill="#70232F"/>
</svg>
